<?xml version="1.0" standalone="no"?>
<!DOCTYPE svg PUBLIC "-//W3C//DTD SVG 20010904//EN"
 "http://www.w3.org/TR/2001/REC-SVG-20010904/DTD/svg10.dtd">
<svg version="1.0" xmlns="http://www.w3.org/2000/svg"
 width="920.000000pt" height="920.000000pt" viewBox="0 0 920.000000 920.000000"
 preserveAspectRatio="xMidYMid meet">
<metadata>
Created by potrace 1.14, written by Peter Selinger 2001-2017
</metadata>
<g transform="translate(0.000000,920.000000) scale(0.100000,-0.100000)"
fill="#000000" stroke="none">
<path d="M1185 7044 c-369 -553 -671 -1011 -673 -1018 -2 -9 476 -604 1139
-1416 88 -108 2665 -3279 2842 -3497 55 -68 103 -123 107 -123 5 0 61 66 127
146 127 157 2844 3501 3541 4359 232 286 421 525 420 531 -2 7 -304 465 -673
1018 l-670 1005 -2745 0 -2745 0 -670 -1005z m2493 409 c-8 -10 -221 -265
-473 -568 l-458 -550 -668 -5 c-368 -3 -669 -2 -669 3 0 4 169 261 377 572
l376 565 765 0 c728 0 764 -1 750 -17z m1551 -550 c259 -312 471 -570 471
-573 0 -3 -495 -5 -1100 -5 -635 0 -1099 4 -1097 9 2 5 214 262 472 572 l468
564 157 0 157 0 472 -567z m2184 2 c208 -311 377 -567 377 -570 0 -3 -300 -5
-667 -5 l-668 1 -450 540 c-247 297 -460 554 -473 570 l-23 29 764 0 764 0
376 -565z m-4225 -2522 c281 -751 511 -1368 509 -1370 -2 -2 -2068 2535 -2210
2714 l-18 23 603 0 603 0 513 -1367z m2694 1293 c-221 -596 -1278 -3406 -1282
-3406 -3 0 -291 762 -640 1693 -349 930 -642 1713 -652 1740 l-18 47 1310 0
1309 0 -27 -74z m1831 51 c-124 -157 -2208 -2716 -2210 -2713 -2 1 228 618
510 1369 l512 1367 603 0 603 0 -18 -23z"/>
</g>
</svg>
